<mxfile host="app.diagrams.net" modified="2024-01-20T01:06:21.867Z" agent="Mozilla/5.0 (X11; Linux x86_64) AppleWebKit/537.36 (KHTML, like Gecko) Chrome/120.0.0.0 Safari/537.36" version="22.1.17" etag="KEO9Y-LMkA3I7JZMLAdm" type="github">
  <diagram name="Page-1" id="2wBc8Tu0KJPnXpDBnYNo">
    <mxGraphModel>
      <root>
        <mxCell id="0" />
        <mxCell id="1" parent="0" />
      </root>
    </mxGraphModel>
  </diagram>
</mxfile>
